<svg width="54" height="54" viewBox="0 0 54 54" fill="none" xmlns="http://www.w3.org/2000/svg">
<circle cx="27" cy="27" r="27" fill="#E8EAFF"/>
<g clip-path="url(#clip0_127_566)">
<path d="M27 19.125C25.4425 19.125 23.9199 19.5869 22.6249 20.4522C21.3299 21.3175 20.3205 22.5474 19.7245 23.9864C19.1284 25.4253 18.9725 27.0087 19.2763 28.5363C19.5802 30.0639 20.3302 31.4671 21.4315 32.5685C22.5329 33.6698 23.9361 34.4198 25.4637 34.7237C26.9913 35.0275 28.5747 34.8716 30.0136 34.2756C31.4526 33.6795 32.6825 32.6702 33.5478 31.3751C34.4131 30.0801 34.875 28.5575 34.875 27C34.8727 24.9121 34.0423 22.9104 32.566 21.4341C31.0896 19.9577 29.0879 19.1273 27 19.125ZM30.585 29.715C30.5152 29.8034 30.4263 29.875 30.3251 29.9243C30.2238 29.9737 30.1127 29.9995 30 30C29.8304 30.0014 29.6657 29.9429 29.5349 29.835L26.5349 27.585C26.4466 27.5151 26.3751 27.4262 26.3258 27.325C26.2765 27.2237 26.2506 27.1126 26.25 27V21.75C26.25 21.5511 26.329 21.3603 26.4697 21.2197C26.6103 21.079 26.8011 21 27 21C27.1989 21 27.3897 21.079 27.5303 21.2197C27.671 21.3603 27.75 21.5511 27.75 21.75V26.64L30.4651 28.665C30.5432 28.7252 30.6083 28.8004 30.6568 28.8862C30.7052 28.972 30.736 29.0667 30.7472 29.1646C30.7583 29.2626 30.7497 29.3617 30.7219 29.4563C30.694 29.5508 30.6475 29.6388 30.585 29.715Z" fill="#9290BB"/>
<path d="M27 15.75C24.775 15.75 22.5999 16.4098 20.7498 17.646C18.8998 18.8821 17.4578 20.6391 16.6064 22.6948C15.7549 24.7505 15.5321 27.0125 15.9662 29.1948C16.4003 31.3771 17.4717 33.3816 19.0451 34.955C20.6184 36.5283 22.623 37.5998 24.8052 38.0338C26.9875 38.4679 29.2495 38.2451 31.3052 37.3936C33.3609 36.5422 35.1179 35.1002 36.354 33.2502C37.5902 31.4001 38.25 29.225 38.25 27C38.2464 24.0174 37.0599 21.1581 34.951 19.0491C32.842 16.9401 29.9826 15.7536 27 15.75ZM27 36.425C25.1359 36.425 23.3137 35.8722 21.7638 34.8366C20.2138 33.801 19.0058 32.329 18.2925 30.6068C17.5791 28.8846 17.3925 26.9895 17.7561 25.1613C18.1198 23.333 19.0174 21.6536 20.3355 20.3355C21.6536 19.0174 23.333 18.1198 25.1613 17.7561C26.9895 17.3924 28.8846 17.5791 30.6068 18.2924C32.329 19.0058 33.801 20.2138 34.8366 21.7638C35.8722 23.3137 36.425 25.1359 36.425 27C36.4226 29.4989 35.4288 31.8948 33.6618 33.6618C31.8948 35.4288 29.4989 36.4226 27 36.425Z" fill="#9290BB"/>
</g>
<defs>
<clipPath id="clip0_127_566">
<rect width="24" height="24" fill="white" transform="translate(15 15)"/>
</clipPath>
</defs>
</svg>
