<svg width="54" height="54" viewBox="0 0 54 54" fill="none" xmlns="http://www.w3.org/2000/svg">
<circle cx="27" cy="27" r="27" fill="#E8EAFF"/>
<g clip-path="url(#clip0_127_297)">
<path d="M27 24.6858C29.2523 24.6858 31.0781 22.86 31.0781 20.6077C31.0781 18.3554 29.2523 16.5295 27 16.5295C24.7477 16.5295 22.9219 18.3554 22.9219 20.6077C22.9219 22.86 24.7477 24.6858 27 24.6858Z" fill="#9290BB"/>
<path d="M35.25 24.6858C36.6739 24.6858 37.8281 23.5315 37.8281 22.1077C37.8281 20.6838 36.6739 19.5295 35.25 19.5295C33.8261 19.5295 32.6719 20.6838 32.6719 22.1077C32.6719 23.5315 33.8261 24.6858 35.25 24.6858Z" fill="#9290BB"/>
<path d="M18.75 24.6858C20.1739 24.6858 21.3281 23.5315 21.3281 22.1077C21.3281 20.6838 20.1739 19.5295 18.75 19.5295C17.3261 19.5295 16.1719 20.6838 16.1719 22.1077C16.1719 23.5315 17.3261 24.6858 18.75 24.6858Z" fill="#9290BB"/>
<path d="M21.2902 27.0009C20.2753 26.1694 19.3562 26.2795 18.1828 26.2795C16.4278 26.2795 15 27.6989 15 29.4431V34.5623C15 35.3198 15.6183 35.9357 16.3786 35.9357C19.6611 35.9357 19.2656 35.9951 19.2656 35.7942C19.2656 32.1667 18.836 29.5065 21.2902 27.0009Z" fill="#9290BB"/>
<path d="M28.116 26.2982C26.0664 26.1273 24.2849 26.3002 22.7483 27.5685C20.1769 29.6282 20.6718 32.4015 20.6718 35.7942C20.6718 36.6918 21.4021 37.4357 22.3133 37.4357C32.2078 37.4357 32.6016 37.7549 33.1883 36.4556C33.3808 36.0162 33.328 36.1558 33.328 31.9523C33.328 28.6136 30.4371 26.2982 28.116 26.2982Z" fill="#9290BB"/>
<path d="M35.8173 26.2796C34.6375 26.2796 33.7234 26.1707 32.71 27.001C35.1458 29.488 34.7345 31.9667 34.7345 35.7943C34.7345 35.9965 34.4062 35.9359 37.5723 35.9359C38.3598 35.9359 39.0001 35.2979 39.0001 34.5137V29.4432C39.0001 27.699 37.5723 26.2796 35.8173 26.2796Z" fill="#9290BB"/>
</g>
<defs>
<clipPath id="clip0_127_297">
<rect width="24" height="24" fill="white" transform="translate(15 15)"/>
</clipPath>
</defs>
</svg>
