<svg width="16" height="16" viewBox="0 0 16 16" fill="none" xmlns="http://www.w3.org/2000/svg">
<g clip-path="url(#clip0_525_122)">
<path d="M15.1042 4.31097L15.0522 4.33397C13.8862 4.85297 12.6752 5.22997 11.4332 5.47797C11.7842 7.14297 11.7832 8.86297 11.4312 10.527C12.6732 10.774 13.8902 11.148 15.0512 11.665L15.1022 11.688C15.6732 10.583 16.0002 9.33097 16.0002 7.99997C16.0002 6.66897 15.6732 5.41697 15.1042 4.31097Z" fill="#9290BB" style="fill:#9290BB;fill:color(display-p3 0.5725 0.5647 0.7333);fill-opacity:1;"/>
<path d="M5.81592 11.349C6.25792 12.756 6.98692 14.089 7.99892 15.267C9.01092 14.089 9.74092 12.756 10.1819 11.349C8.73292 11.157 7.26492 11.158 5.81592 11.349Z" fill="#9290BB" style="fill:#9290BB;fill:color(display-p3 0.5725 0.5647 0.7333);fill-opacity:1;"/>
<path d="M10.4422 5.63397C9.63819 5.74697 8.82619 5.82397 8.00019 5.82397C7.17319 5.82397 6.36119 5.74597 5.55719 5.63397C5.22019 7.19597 5.22019 8.81197 5.55919 10.374C7.17819 10.149 8.82119 10.149 10.4402 10.374C10.7792 8.81197 10.7802 7.19597 10.4422 5.63397Z" fill="#9290BB" style="fill:#9290BB;fill:color(display-p3 0.5725 0.5647 0.7333);fill-opacity:1;"/>
<path d="M7.99892 0.732971C6.98692 1.91097 6.25792 3.24397 5.81592 4.65197C7.26492 4.84297 8.73392 4.84297 10.1819 4.65197C9.73992 3.24497 9.01092 1.91097 7.99892 0.732971Z" fill="#9290BB" style="fill:#9290BB;fill:color(display-p3 0.5725 0.5647 0.7333);fill-opacity:1;"/>
<path d="M8.68896 0C9.86296 1.344 10.699 2.877 11.185 4.496C12.351 4.268 13.493 3.921 14.583 3.44C13.263 1.521 11.133 0.21 8.68896 0Z" fill="#9290BB" style="fill:#9290BB;fill:color(display-p3 0.5725 0.5647 0.7333);fill-opacity:1;"/>
<path d="M1.41602 3.44C2.50702 3.92 3.64902 4.268 4.81402 4.496C5.30002 2.877 6.13602 1.344 7.31002 0C4.86602 0.21 2.73702 1.521 1.41602 3.44Z" fill="#9290BB" style="fill:#9290BB;fill:color(display-p3 0.5725 0.5647 0.7333);fill-opacity:1;"/>
<path d="M4.567 5.47901C3.325 5.23001 2.115 4.85401 0.95 4.33501L0.898 4.31201C0.327 5.41701 0 6.66901 0 8.00001C0 9.33101 0.327 10.583 0.898 11.689L0.95 11.666C2.11 11.148 3.327 10.774 4.569 10.528C4.216 8.86401 4.216 7.14401 4.567 5.47901Z" fill="#9290BB" style="fill:#9290BB;fill:color(display-p3 0.5725 0.5647 0.7333);fill-opacity:1;"/>
<path d="M4.81402 11.505C3.64802 11.732 2.50602 12.08 1.41602 12.56C2.73702 14.479 4.86602 15.79 7.31002 16C6.13602 14.656 5.30002 13.123 4.81402 11.505Z" fill="#9290BB" style="fill:#9290BB;fill:color(display-p3 0.5725 0.5647 0.7333);fill-opacity:1;"/>
<path d="M11.185 11.504C10.7 13.123 9.86296 14.656 8.68896 16C11.133 15.79 13.263 14.479 14.583 12.56C13.493 12.079 12.351 11.732 11.185 11.504Z" fill="#9290BB" style="fill:#9290BB;fill:color(display-p3 0.5725 0.5647 0.7333);fill-opacity:1;"/>
</g>
<defs>
<clipPath id="clip0_525_122">
<rect width="16" height="16" fill="white" style="fill:white;fill-opacity:1;"/>
</clipPath>
</defs>
</svg>
