<svg width="20" height="21" viewBox="0 0 20 21" fill="none" xmlns="http://www.w3.org/2000/svg">
<path d="M9.57149 10.4751L1.08577 3.79251C1.40006 3.60501 1.76435 3.5 2.14291 3.5H17.8572C18.2358 3.5 18.6001 3.605 18.9143 3.79251L10.4286 10.4751C10.1786 10.6776 9.8215 10.6701 9.57149 10.4751ZM19.8501 4.93251L11.2858 11.6751C10.9072 11.9751 10.4501 12.1251 10.0001 12.1251C9.54292 12.1251 9.0929 11.9751 8.71434 11.6751L0.15 4.93251C0.05 5.18751 0 5.46502 0 5.75V16.25C0 17.4875 0.964297 18.5 2.14286 18.5H17.8571C19.0357 18.5 20 17.4875 20 16.25V5.75C20 5.465 19.9501 5.18749 19.8501 4.93251Z" fill="currentColor"/>
</svg>
