<svg width="75" height="73" viewBox="0 0 75 73" fill="none" xmlns="http://www.w3.org/2000/svg">
<path d="M59.2674 0C51.6824 0 45.5349 6.1475 45.5349 13.7325C45.5349 21.3175 51.6824 27.465 59.2674 27.465C66.8524 27.465 72.9999 21.3175 72.9999 13.7325C72.9999 6.1475 66.8524 0 59.2674 0ZM65.3474 13.145L58.6424 18.5475C58.2424 18.8725 57.7424 19.045 57.2324 19.045C57.1474 19.045 57.0624 19.04 56.9749 19.03C56.3774 18.9625 55.8324 18.6575 55.4624 18.1825L52.8274 14.8225C52.0599 13.845 52.2324 12.43 53.2074 11.6625C54.1874 10.8925 55.6049 11.0675 56.3674 12.045L57.5949 13.61L62.5249 9.64C63.4949 8.86 64.9099 9.015 65.6899 9.98C66.4699 10.95 66.3174 12.3675 65.3474 13.145Z" fill="currentColor"/>
<path d="M71.325 56.8251H65.3V30.1201C63.4175 30.8151 61.39 31.215 59.2675 31.215C49.6275 31.215 41.785 23.3725 41.785 13.7325C41.785 11.835 42.0975 10.0125 42.66 8.30005H8.975C8.95 8.30005 8.9 8.32505 8.875 8.32505C4.4 8.35005 0.75 12.025 0.75 16.5V20.225C0.75 22.15 2.325 23.725 4.25 23.725H12.675V64.0251C12.675 66.3251 13.65 68.5501 15.35 70.1001C16.875 71.4751 18.825 72.225 20.85 72.25H66.6C71.15 72.25 74.825 68.5501 74.825 64.0251V60.325C74.825 58.4 73.25 56.8251 71.325 56.8251ZM12.6725 19.2225H5.25V16.5125C5.25 14.4725 6.9075 12.8125 8.97 12.8125C11.01 12.8125 12.67 14.4725 12.67 16.5125L12.6725 19.2225ZM27.65 27.7H43.7C44.9425 27.7 45.95 28.7075 45.95 29.95C45.95 31.1925 44.9425 32.2 43.7 32.2H27.65C26.4075 32.2 25.4 31.1925 25.4 29.95C25.4 28.7075 26.4075 27.7 27.65 27.7ZM25.4025 39.4426C25.4025 38.2001 26.41 37.1926 27.6525 37.1926H38.64C39.8825 37.1926 40.89 38.2001 40.89 39.4426C40.89 40.6851 39.8825 41.6926 38.64 41.6926H27.6525C26.41 41.695 25.4025 40.6851 25.4025 39.4426ZM70.3325 64.0275C70.3325 66.0801 68.665 67.7476 66.6125 67.7476H28.1825C29.2 65.7476 29.075 63.4925 29.075 61.3251H63.05C63.0625 61.3251 63.0725 61.3176 63.0875 61.3176H70.335L70.3325 64.0275Z" fill="currentColor"/>
</svg>
