<svg width="54" height="54" viewBox="0 0 54 54" fill="none" xmlns="http://www.w3.org/2000/svg">
<circle cx="27" cy="27" r="27" fill="#E8EAFF"/>
<path d="M17.3547 29.3047H16.0071C15.6349 29.3047 15.3333 28.9899 15.3333 28.6016V23.6797C15.3333 23.2914 15.6349 22.9766 16.0071 22.9766H17.3547V29.3047Z" fill="#9290BB"/>
<path d="M22.0715 37.1562H20.05C19.6779 37.1562 19.3762 36.8414 19.3762 36.4531V32H22.7454V36.4531C22.7454 36.8414 22.4437 37.1562 22.0715 37.1562Z" fill="#9290BB"/>
<path d="M22.7454 21.6875H19.3762C19.0041 21.6875 18.7024 22.0023 18.7024 22.3906V29.8906C18.7024 30.2789 19.0041 30.5938 19.3762 30.5938H22.7454V21.6875Z" fill="#9290BB"/>
<path d="M35.3528 17.1286C35.0915 16.9376 34.7477 16.9641 34.5176 17.1766C31.6363 19.8372 27.9355 21.4271 24.093 21.6566V30.6246C27.9355 30.8541 31.6363 32.444 34.5176 35.1047C34.6432 35.2207 34.8028 35.2813 34.9642 35.2813C35.0846 35.2813 35.206 35.2476 35.3153 35.1783C35.5201 35.0485 35.6379 34.8092 35.6379 34.5591V17.7202C35.6379 17.487 35.5358 17.2624 35.3528 17.1286Z" fill="#9290BB"/>
<path d="M36.9856 23.3301V28.9513C37.8034 28.3092 38.3333 27.2884 38.3333 26.1407C38.3333 24.993 37.8034 23.9721 36.9856 23.3301Z" fill="#9290BB"/>
</svg>
