<svg width="54" height="54" viewBox="0 0 54 54" fill="none" xmlns="http://www.w3.org/2000/svg">
<circle cx="27" cy="27" r="27" fill="#E8EAFF"/>
<path d="M37.4334 25.3126L32.7616 29.8666L33.8649 36.2986C33.9129 36.5798 33.7974 36.864 33.5664 37.0321C33.4359 37.1273 33.2806 37.1753 33.1254 37.1753C33.0061 37.1753 32.8861 37.1468 32.7766 37.0891L27.0001 34.0523L21.2244 37.0883C20.9724 37.2218 20.6656 37.2001 20.4346 37.0313C20.2036 36.8633 20.0881 36.5791 20.1361 36.2978L21.2394 29.8658L16.5669 25.3126C16.3629 25.1131 16.2886 24.8146 16.3771 24.5438C16.4656 24.2731 16.7004 24.0743 16.9831 24.0331L23.4399 23.0956L26.3274 17.2441C26.5801 16.7318 27.4201 16.7318 27.6729 17.2441L30.5604 23.0956L37.0171 24.0331C37.2999 24.0743 37.5346 24.2723 37.6231 24.5438C37.7116 24.8153 37.6374 25.1123 37.4334 25.3126Z" fill="#9D9BC3"/>
</svg>
